<?xml version="1.0" encoding="UTF-8" standalone="no"?>

<svg
   width="1024"
   height="1024"
   viewBox="0 0 1024 1024"
   version="1.1"
   xmlns="http://www.w3.org/2000/svg"
> 
  <path
    fill="#999"
    stroke="none"
    d="m 13.788595,1010.0252 c -18.9781701,-18.45623 -18.2623905,-49.33242 1.508681,-65.07961 14.113661,-11.24113 48.379837,-12.64706 308.242694,-12.64706 280.7868,0 293.05168,0.6052 309.72989,15.28357 20.86163,18.36025 22.04123,36.57523 3.84909,59.434 L 623.60224,1024 H 325.8804 C 48.479588,1024 27.177799,1023.0462 13.788595,1010.0252 Z M 709.49085,985.45016 c 3.77342,-34.56092 1.39545,-41.63113 -22.98169,-68.32801 -48.04245,-52.61422 -45.91174,-53.61471 113.90641,-53.48709 95.40435,0.0761 148.04219,3.2056 162.54363,9.66356 C 996.71677,888.33205 1024,930.04912 1024,966.63229 1024,1020.9384 1014.6479,1024 848.76236,1024 H 705.28215 Z M 60.247224,831.15683 c 0.06684,-76.20679 11.139829,-105.18287 61.391746,-160.64579 57.00477,-62.91597 75.37048,-98.6412 82.5895,-160.65372 l 5.97765,-51.34986 h 114.87812 114.87812 l 4.08335,55.40299 c 4.58926,62.27081 15.70579,85.27735 67.5417,139.78424 57.51483,60.47849 67.74995,83.60845 71.01747,160.48852 l 2.90899,68.44367 -262.65752,2.0225 -262.657529,2.0225 z M 647.46227,777.55224 c -3.06036,-22.06566 -7.96136,-47.85671 -10.89112,-57.31343 l -5.32672,-17.19403 h 130.28968 130.28987 l 6.05224,28.39266 c 3.32856,15.61596 11.578,37.79742 18.33211,49.29215 6.75394,11.49472 12.27986,24.50908 12.27986,28.92079 0,5.26338 -47.35484,8.02127 -137.73085,8.02127 H 653.02648 Z M 611.56259,646.40655 c -14.32678,-5.60409 -35.81695,-19.4927 -47.75599,-30.86354 -19.86915,-18.92367 -21.70709,-26.60919 -21.70709,-90.76536 v -70.09108 h 47.75581 47.756 l 2.64638,36.29851 2.64655,36.2985 h 34.25571 34.2559 v -38.20895 -38.20895 h 52.09745 52.09727 v 38.20895 38.20895 h 34.25588 34.25571 l 2.64656,-36.2985 2.64638,-36.29851 h 47.75599 47.756 l 2.4934,61.49328 c 2.17532,53.65003 -0.0614,64.85889 -17.53903,87.88059 -34.76486,45.7939 -63.49827,53.14856 -206.36816,52.82261 -85.4631,-0.19498 -134.26865,-3.55997 -151.95072,-10.4765 z M 170.90564,396.76103 c -20.40052,-10.45756 -19.41978,-42.71099 1.59989,-52.61156 9.52259,-4.48525 75.56644,-7.91067 152.52163,-7.91067 76.95502,0 142.99886,3.42542 152.52146,7.91067 25.24408,11.89037 21.92636,44.24311 -5.47752,53.41281 -29.48909,9.8674 -281.6617,9.1965 -301.16546,-0.80125 z M 133.98783,305.65766 C 103.14936,275.66427 94.561098,213.33373 116.19377,176.5165 c 15.51342,-26.40244 42.16758,-42.25266 92.24195,-54.85261 59.51533,-14.97551 68.83545,-25.40082 68.83545,-76.997535 V 0 h 43.41454 43.41436 v 33.890573 c 0,57.008871 10.1869,70.173237 65.19116,84.246167 28.97632,7.41362 61.7165,22.88394 80.51171,38.0431 28.95229,23.35154 31.67633,29.09727 31.67633,66.81631 0,27.34557 -5.75405,49.79402 -17.05569,66.541 l -17.05571,25.27322 -180.79012,1.16198 c -150.95499,0.97022 -182.73734,-0.73198 -192.58992,-10.31469 z"
  />
</svg>
